<?xml version="1.0" encoding="UTF-8"?>
<svg fill="none" viewBox="0 0 24 24" xmlns="http://www.w3.org/2000/svg">
<path d="m18 3c1.6569 0 3 1.3431 3 3v2.1428c0 0.33412 0 0.50119-0.0766 0.62316-0.04 0.0636-0.0938 0.11738-0.1574 0.15734-0.122 0.07664-0.289 0.07664-0.6231 0.07664h-5.1429m3-6c-1.6569 0-3 1.3431-3 3v3m3-6h-11c-1.8856 0-2.8284 0-3.4142 0.58578-0.58579 0.58579-0.58579 1.5286-0.58579 3.4142v14l3-1 3 1 3-1 3 1v-12" stroke="currentColor" stroke-width="2"/>
<path d="m7 7h4" stroke="currentColor" stroke-linecap="round" stroke-width="2"/>
<path d="M8 11H7" stroke="currentColor" stroke-linecap="round" stroke-width="2"/>
<path d="m7 15h3" stroke="currentColor" stroke-linecap="round" stroke-width="2"/>
</svg>
