<?xml version="1.0" encoding="UTF-8"?>
<svg fill="none" viewBox="0 0 24 24" xmlns="http://www.w3.org/2000/svg">
<circle cx="5.7826" cy="17.391" r="1.913" stroke="currentColor" stroke-width="2"/>
<circle cx="18.026" cy="17.391" r="1.913" stroke="currentColor" stroke-width="2"/>
<path d="m15.826 7.3478v-2.3478c0-0.55228-0.4477-1-1-1h-12.826c-0.55228 0-1 0.44771-1 1v9.0435c0 0.2641 0.21412 0.4782 0.47826 0.4782v0m14.348-7.1739 0.0429 7.1739m-0.0429-7.1739h2.3913m2.4875 9.7433h1.2951c0.5523 0 1-0.4477 1-1v-3.4824m-7.5382 4.4824h-1.9413m-5.0723 0h1.6388m-6.8229 0h-1.6968v0c-0.04917 0-0.08903-0.0399-0.08903-0.089v-2.4804m0 0h8.6087m5.7391 0h0.0429m-5.782 2.5694v-2.5694m0 2.5694h3.4335m-3.4335-2.5694h3.4335m0 2.5694v-2.5694m0 0h2.3485m2.3484-7.1739h1.4348l1.9951 1.9951c0.8661 0.86617 1.3527 2.0409 1.3527 3.2658v0m-4.7826-5.2609v4.2609c0 0.5523 0.4477 1 1 1h3.7826" stroke="currentColor" stroke-linecap="round" stroke-linejoin="round" stroke-width="2"/>
</svg>
